# xmcd
#
# Track frame offsets:
#	150
#	21377
#	39899
#	63025
#	85046
#	108552
#	136109
#	151382
#	181792
#	199297
#
# Disc length: 2791 seconds
#
# Revision: 1
# Processed by: cddbd v1.5.2PL0 Copyright (c) Steve Scherf et al.
# Submitted via: audiograbber 1.83.01
#
DISCID=760ae50a
DTITLE=Grateful Dead - 69-07-11 NY State Pavilion, Flushing Meadow Park, Queens
DTITLE=NY
DYEAR=1900
DGENRE=
TTITLE0=Intro
TTITLE1=Dupree's Diamond Blues
TTITLE2=Dire Wolf
TTITLE3=Hard To Handle
TTITLE4=Silver Threads and Golden Needles
TTITLE5=Casey Jones
TTITLE6=Sitting On Top Of The World
TTITLE7=Big Boss Man
TTITLE8=Mama Tried
TTITLE9=High Time
EXTD=
EXTT0=
EXTT1=
EXTT2=
EXTT3=
EXTT4=
EXTT5=
EXTT6=
EXTT7=
EXTT8=
EXTT9=
PLAYORDER=
